<svg xmlns="http://www.w3.org/2000/svg" width="1920" height="1080"><defs><filter id="blur0"><feDropShadow dx="0" dy="0" flood-color="#f8f7ff" stdDeviation="20.75109087733965"/></filter><filter id="blur1"><feDropShadow dx="0" dy="0" flood-color="#ffd2a1" stdDeviation="12.907555623190015"/></filter><filter id="blur2"><feDropShadow dx="0" dy="0" flood-color="#fff4ea" stdDeviation="20.25303769239689"/></filter><filter id="blur3"><feDropShadow dx="0" dy="0" flood-color="#aabfff" stdDeviation="14.944540958157388"/></filter><filter id="blur4"><feDropShadow dx="0" dy="0" flood-color="#ffcc6f" stdDeviation="20.474724454293373"/></filter><filter id="blur5"><feDropShadow dx="0" dy="0" flood-color="#fff4ea" stdDeviation="20.458090325040978"/></filter><filter id="blur6"><feDropShadow dx="0" dy="0" flood-color="#f8f7ff" stdDeviation="15.53826820341634"/></filter><filter id="blur7"><feDropShadow dx="0" dy="0" flood-color="#aabfff" stdDeviation="13.198186362166172"/></filter></defs><rect width="1920" height="1080" fill="black"/><g filter="url(#blur0)"><circle cx="485.887097459373" cy="43.602182424292344" r="3.626103959987561" fill="#fff4ea"/><circle cx="135.242004559924" cy="542.0048850354121" r="2.8109275996954386" fill="#ffcc6f"/><circle cx="327.4099947064839" cy="447.8567692807227" r="2.1780066763628234" fill="#fff4ea"/><circle cx="1834.7902698120638" cy="301.97100057471573" r="3.9121606946085503" fill="#9bb0ff"/><circle cx="534.4604007503677" cy="137.86296293408907" r="3.982698695158726" fill="#ffd2a1"/><circle cx="1421.6593115325134" cy="498.5183163858989" r="2.463952874404726" fill="#f8f7ff"/><circle cx="672.6377205949938" cy="1005.7376358586745" r="2.8411523989644123" fill="#ffcc6f"/><circle cx="1800.7954613276218" cy="13.60526254696313" r="3.2375066354741797" fill="#cad7ff"/><circle cx="1784.9262319644306" cy="417.549301632464" r="3.9215096526530138" fill="#ffd2a1"/><circle cx="845.7424674424195" cy="212.1366903894796" r="2.273650550671907" fill="#cad7ff"/><circle cx="243.22939888814852" cy="417.3933277292272" r="2.0017233235297747" fill="#ffcc6f"/><circle cx="1175.9113092891016" cy="184.22095670278085" r="2.8445459968137548" fill="#aabfff"/><circle cx="991.5661426999663" cy="1045.156953690025" r="4.053366348045323" fill="#f8f7ff"/><circle cx="386.5216576502556" cy="947.2276739601801" r="1.9556403848736936" fill="#ffcc6f"/><circle cx="998.672708992674" cy="823.7336531009394" r="4.251374826663918" fill="#ffcc6f"/><circle cx="967.895888344685" cy="116.1194333688618" r="2.3232328856816724" fill="#ffd2a1"/></g><g filter="url(#blur1)"><circle cx="24.541709096601352" cy="887.5245986485663" r="3.416648585917285" fill="#9bb0ff"/><circle cx="830.7170754734825" cy="128.9994127258416" r="1.9324115874370174" fill="#ffd2a1"/><circle cx="1585.6846532301447" cy="193.89466876605158" r="3.9151171514728706" fill="#ffcc6f"/><circle cx="1493.2835012534201" cy="961.2880242476701" r="4.229957882991375" fill="#aabfff"/><circle cx="1812.5228067133348" cy="280.66920386655846" r="1.8519018429735776" fill="#cad7ff"/><circle cx="1341.3116525716719" cy="6.3127072664987915" r="4.012360685178732" fill="#fff4ea"/><circle cx="716.3390057121462" cy="331.0009999520435" r="2.577783983514985" fill="#cad7ff"/><circle cx="324.41450635899525" cy="255.33496352846325" r="3.5523266891496927" fill="#fff4ea"/><circle cx="1715.1557297489207" cy="826.2035648841093" r="2.022852046224144" fill="#ffd2a1"/><circle cx="365.49797740660006" cy="508.6543701598502" r="1.883162614500136" fill="#ffd2a1"/><circle cx="620.7331321438336" cy="666.6560484169792" r="3.385478557866261" fill="#9bb0ff"/><circle cx="717.1093546884772" cy="450.2384162506134" r="2.5900249236364754" fill="#cad7ff"/><circle cx="1592.2708479027146" cy="64.5859462239845" r="4.253524352439927" fill="#9bb0ff"/><circle cx="314.14178348880563" cy="257.1763059327389" r="3.17181217897455" fill="#aabfff"/><circle cx="1353.2371926477585" cy="215.32166208812077" r="2.9988457576661993" fill="#fff4ea"/><circle cx="1555.1702994199823" cy="715.8673806285046" r="2.84318801389227" fill="#ffcc6f"/></g><g filter="url(#blur2)"><circle cx="757.9182428382948" cy="5.859352243298823" r="2.4310987738480163" fill="#fff4ea"/><circle cx="1666.15195642643" cy="614.4356021471159" r="3.701689819724358" fill="#fff4ea"/><circle cx="514.1359536862506" cy="749.683322639421" r="1.6881275775016071" fill="#ffd2a1"/><circle cx="563.4932177180164" cy="508.4430142891342" r="3.960306238093435" fill="#aabfff"/><circle cx="572.6247904780868" cy="677.0459754309378" r="4.475513041448751" fill="#f8f7ff"/><circle cx="252.76640969347127" cy="4.179343224387191" r="2.852800963157917" fill="#aabfff"/><circle cx="644.9376239766066" cy="0.19697309371716987" r="4.34412314993145" fill="#fff4ea"/><circle cx="524.0638914269468" cy="850.7016875457135" r="2.750488771041612" fill="#cad7ff"/><circle cx="1192.9386839600904" cy="414.6211714041464" r="4.47093778811323" fill="#f8f7ff"/><circle cx="45.308735024518896" cy="387.67112379002356" r="3.4355627466974963" fill="#aabfff"/><circle cx="390.9680649003178" cy="330.8668190297833" r="3.455294942618497" fill="#f8f7ff"/><circle cx="899.4978623523056" cy="519.1003355122381" r="2.465036023246613" fill="#ffd2a1"/><circle cx="257.2309616113841" cy="41.424570603495084" r="2.6785980210048494" fill="#aabfff"/><circle cx="956.2829574721911" cy="1064.2641620926724" r="4.4234272269516" fill="#cad7ff"/><circle cx="412.16889931041203" cy="772.2248275920039" r="4.049017151415903" fill="#f8f7ff"/><circle cx="1761.6161237563986" cy="609.2361208524744" r="4.397984100362276" fill="#cad7ff"/></g><g filter="url(#blur3)"><circle cx="143.00648135339912" cy="487.71922373317" r="1.84781970641593" fill="#9bb0ff"/><circle cx="692.8375985119033" cy="83.9902403412393" r="3.7421340047965637" fill="#9bb0ff"/><circle cx="174.5979240609156" cy="470.0355620588968" r="4.479536099061468" fill="#fff4ea"/><circle cx="976.0428252076761" cy="702.5585189471029" r="2.152979306030095" fill="#aabfff"/><circle cx="1563.5478968438774" cy="379.7193814572632" r="3.0639608184845573" fill="#cad7ff"/><circle cx="952.2502456275661" cy="292.706283907232" r="3.1484388575751012" fill="#9bb0ff"/><circle cx="1826.9290230944216" cy="894.7177244285498" r="4.018967629999114" fill="#ffd2a1"/><circle cx="1268.4524967038974" cy="147.44983170452494" r="3.176330548946946" fill="#fff4ea"/><circle cx="243.51586409435583" cy="884.1249460437916" r="2.083244806845453" fill="#f8f7ff"/><circle cx="177.43655027020523" cy="854.8295911033389" r="1.6815483615853524" fill="#9bb0ff"/><circle cx="756.5891120075092" cy="654.8059412551277" r="3.9222043656478824" fill="#cad7ff"/><circle cx="1384.131672405468" cy="10.937286036847116" r="4.4023016364750465" fill="#9bb0ff"/><circle cx="235.05241071594776" cy="120.35689148341811" r="2.1401115508450146" fill="#aabfff"/><circle cx="189.26549485650986" cy="721.7602923107711" r="3.9624982890786167" fill="#cad7ff"/><circle cx="136.49496582077475" cy="176.14056615407068" r="4.316320099609009" fill="#f8f7ff"/><circle cx="1318.1927210416193" cy="583.9924222364414" r="1.5874504806976328" fill="#ffd2a1"/></g><g filter="url(#blur4)"><circle cx="1310.0713314890577" cy="891.4634905017934" r="1.8562970563110202" fill="#aabfff"/><circle cx="752.8537006256643" cy="733.3895540724332" r="4.292952143310039" fill="#cad7ff"/><circle cx="389.2390598076815" cy="812.3964543550097" r="3.1859868154966917" fill="#ffcc6f"/><circle cx="698.9331655578625" cy="412.1524233868903" r="3.666090465610222" fill="#f8f7ff"/><circle cx="240.05652295897227" cy="963.0869058616553" r="3.9738210845589235" fill="#ffd2a1"/><circle cx="1743.7512795794428" cy="174.6511150698646" r="2.053340540776808" fill="#9bb0ff"/><circle cx="1663.4998150086715" cy="969.0932459367737" r="4.369898971102451" fill="#9bb0ff"/><circle cx="1874.4428923330656" cy="363.4024341335069" r="3.850331916365294" fill="#ffcc6f"/><circle cx="635.1064425585678" cy="184.40562921630365" r="3.3707097144174707" fill="#ffcc6f"/><circle cx="685.3127555615495" cy="266.3886089220412" r="3.3612190359085696" fill="#9bb0ff"/><circle cx="1866.8018297594556" cy="1019.4207299764495" r="3.3377251981244402" fill="#ffd2a1"/><circle cx="875.7853097230108" cy="1014.7788020227745" r="2.3568201825290567" fill="#ffcc6f"/><circle cx="1795.0294398704675" cy="894.0548083515041" r="1.9711373548710758" fill="#fff4ea"/><circle cx="1576.5884129298527" cy="841.5651380096156" r="2.8214200648648804" fill="#aabfff"/><circle cx="110.2679414034376" cy="153.5672294289893" r="4.485337663397068" fill="#fff4ea"/><circle cx="1641.6629839840684" cy="407.01489772955557" r="4.4207777523346845" fill="#f8f7ff"/></g><g filter="url(#blur5)"><circle cx="1156.7640255591023" cy="196.71074480573174" r="2.2367206681703475" fill="#9bb0ff"/><circle cx="331.51070952039936" cy="663.8168723911116" r="2.975182585555819" fill="#f8f7ff"/><circle cx="259.3795696567625" cy="584.7199526864101" r="2.187577200222912" fill="#f8f7ff"/><circle cx="785.2736734701181" cy="117.42218887155059" r="4.346806792992112" fill="#fff4ea"/><circle cx="1281.6153448468735" cy="139.68397073301952" r="2.902004092571163" fill="#aabfff"/><circle cx="547.3538160613525" cy="18.464518602044567" r="1.8528758326623351" fill="#cad7ff"/><circle cx="154.17123829842453" cy="33.3264730206547" r="2.4205922668078625" fill="#ffcc6f"/><circle cx="1738.170928284453" cy="401.7336922445831" r="3.8547176476841214" fill="#cad7ff"/><circle cx="1426.3116994346835" cy="607.5621410926818" r="2.0436962647679673" fill="#ffcc6f"/><circle cx="0.35378421681883765" cy="381.27237044723097" r="3.510190582132404" fill="#aabfff"/><circle cx="1066.361677329277" cy="708.9523694879271" r="4.499864927872177" fill="#fff4ea"/><circle cx="1349.7773951790277" cy="1001.8159552239271" r="2.3956317679120116" fill="#fff4ea"/><circle cx="456.8111870113985" cy="645.7724229566795" r="4.108066962609262" fill="#ffd2a1"/><circle cx="1312.5710930913788" cy="748.1478430656894" r="2.186087132149848" fill="#fff4ea"/><circle cx="310.55214763282186" cy="84.96617614487276" r="1.7791468027775668" fill="#f8f7ff"/><circle cx="1832.7349729564453" cy="450.8465514323026" r="3.114306551423795" fill="#ffd2a1"/></g><g filter="url(#blur6)"><circle cx="168.32093867097626" cy="60.31628060455661" r="3.9953580742276875" fill="#cad7ff"/><circle cx="1646.058902635905" cy="213.88704365338648" r="3.1720832996471904" fill="#fff4ea"/><circle cx="1375.7457081615983" cy="953.6884892653537" r="3.0677804992378155" fill="#9bb0ff"/><circle cx="1903.737065081371" cy="281.16453216496296" r="2.933185445939661" fill="#ffd2a1"/><circle cx="1225.189713491985" cy="136.14719467430467" r="2.8810862876694165" fill="#ffcc6f"/><circle cx="470.02064115391073" cy="65.24543011886638" r="3.96218947536852" fill="#f8f7ff"/><circle cx="874.2440156405672" cy="827.6136170996264" r="2.3900116327016656" fill="#cad7ff"/><circle cx="798.2710097246463" cy="496.56158701985106" r="3.388573368511905" fill="#ffd2a1"/><circle cx="718.5921876707212" cy="141.73244516458334" r="3.6241365547046813" fill="#aabfff"/><circle cx="89.87990220681617" cy="241.29920747387374" r="4.113544565107459" fill="#cad7ff"/><circle cx="995.5675948235423" cy="887.7826136573825" r="2.5062705679703607" fill="#fff4ea"/><circle cx="1912.1008206022943" cy="398.1559196536804" r="2.30859700370602" fill="#9bb0ff"/><circle cx="514.7080317530406" cy="953.2242798462931" r="3.654600209789245" fill="#aabfff"/><circle cx="301.17146842724526" cy="410.04333980047613" r="2.3067010833578743" fill="#fff4ea"/><circle cx="132.8601073803714" cy="338.00701357086837" r="1.7320030071300163" fill="#fff4ea"/><circle cx="1823.1246743574306" cy="823.1203987086782" r="4.064527219699318" fill="#ffcc6f"/></g><g filter="url(#blur7)"><circle cx="1208.580025774524" cy="558.1481233102178" r="2.5897389741324877" fill="#fff4ea"/><circle cx="1263.5903688590072" cy="64.7482770602152" r="2.7016884908115015" fill="#fff4ea"/><circle cx="1161.7235395222679" cy="442.2275219408234" r="1.587266234740877" fill="#cad7ff"/><circle cx="723.1851272375359" cy="540.2319767838547" r="4.405680560674854" fill="#cad7ff"/><circle cx="631.7942418916699" cy="61.56854179731616" r="2.8626421172229066" fill="#fff4ea"/><circle cx="1593.4541570032416" cy="762.9274067978051" r="3.2283659107329608" fill="#9bb0ff"/><circle cx="1570.6997807739122" cy="64.98973105505351" r="3.839067021380967" fill="#aabfff"/><circle cx="910.4581146556584" cy="330.5220496485456" r="2.1311179268016627" fill="#aabfff"/><circle cx="1388.8026767525475" cy="551.5985913936314" r="2.59706054561548" fill="#ffd2a1"/><circle cx="1324.327703459428" cy="623.6882140622614" r="3.0905893782141707" fill="#cad7ff"/><circle cx="988.3152662483063" cy="211.62320122901573" r="2.201684610072968" fill="#fff4ea"/><circle cx="38.30599865109555" cy="1026.480481190217" r="3.948090991577966" fill="#fff4ea"/><circle cx="437.3895604482576" cy="965.0461973561414" r="2.183429084536746" fill="#aabfff"/><circle cx="1426.048066058382" cy="328.12405465031094" r="3.2641727272854837" fill="#fff4ea"/><circle cx="293.3443928815473" cy="217.42629609380154" r="1.6204450783280744" fill="#ffd2a1"/><circle cx="1848.846249026711" cy="1000.9049951957583" r="3.8313983422537383" fill="#ffcc6f"/></g></svg>