<svg id="visual" viewBox="0 0 900 600" width="900" height="600" xmlns="http://www.w3.org/2000/svg" xmlns:xlink="http://www.w3.org/1999/xlink" version="1.1"><path d="M0 504L21.5 506.5C43 509 86 514 128.8 517.5C171.7 521 214.3 523 257.2 522.8C300 522.7 343 520.3 385.8 516.2C428.7 512 471.3 506 514.2 505C557 504 600 508 642.8 511.5C685.7 515 728.3 518 771.2 518.5C814 519 857 517 878.5 516L900 515L900 601L878.5 601C857 601 814 601 771.2 601C728.3 601 685.7 601 642.8 601C600 601 557 601 514.2 601C471.3 601 428.7 601 385.8 601C343 601 300 601 257.2 601C214.3 601 171.7 601 128.8 601C86 601 43 601 21.5 601L0 601Z" fill="#2196f3"></path><path d="M0 521L21.5 525.7C43 530.3 86 539.7 128.8 543.5C171.7 547.3 214.3 545.7 257.2 543.8C300 542 343 540 385.8 538.8C428.7 537.7 471.3 537.3 514.2 536.8C557 536.3 600 535.7 642.8 532.3C685.7 529 728.3 523 771.2 524.2C814 525.3 857 533.7 878.5 537.8L900 542L900 601L878.5 601C857 601 814 601 771.2 601C728.3 601 685.7 601 642.8 601C600 601 557 601 514.2 601C471.3 601 428.7 601 385.8 601C343 601 300 601 257.2 601C214.3 601 171.7 601 128.8 601C86 601 43 601 21.5 601L0 601Z" fill="#967eea"></path><path d="M0 556L21.5 556C43 556 86 556 128.8 554.8C171.7 553.7 214.3 551.3 257.2 549.2C300 547 343 545 385.8 544.8C428.7 544.7 471.3 546.3 514.2 546.8C557 547.3 600 546.7 642.8 545.7C685.7 544.7 728.3 543.3 771.2 542C814 540.7 857 539.3 878.5 538.7L900 538L900 601L878.5 601C857 601 814 601 771.2 601C728.3 601 685.7 601 642.8 601C600 601 557 601 514.2 601C471.3 601 428.7 601 385.8 601C343 601 300 601 257.2 601C214.3 601 171.7 601 128.8 601C86 601 43 601 21.5 601L0 601Z" fill="#d95bc1"></path><path d="M0 564L21.5 565.2C43 566.3 86 568.7 128.8 568.5C171.7 568.3 214.3 565.7 257.2 564C300 562.3 343 561.7 385.8 563.2C428.7 564.7 471.3 568.3 514.2 567.8C557 567.3 600 562.7 642.8 561.8C685.7 561 728.3 564 771.2 563.5C814 563 857 559 878.5 557L900 555L900 601L878.5 601C857 601 814 601 771.2 601C728.3 601 685.7 601 642.8 601C600 601 557 601 514.2 601C471.3 601 428.7 601 385.8 601C343 601 300 601 257.2 601C214.3 601 171.7 601 128.8 601C86 601 43 601 21.5 601L0 601Z" fill="#f93a81"></path><path d="M0 585L21.5 585C43 585 86 585 128.8 584.2C171.7 583.3 214.3 581.7 257.2 579.3C300 577 343 574 385.8 575C428.7 576 471.3 581 514.2 583C557 585 600 584 642.8 584C685.7 584 728.3 585 771.2 584.3C814 583.7 857 581.3 878.5 580.2L900 579L900 601L878.5 601C857 601 814 601 771.2 601C728.3 601 685.7 601 642.8 601C600 601 557 601 514.2 601C471.3 601 428.7 601 385.8 601C343 601 300 601 257.2 601C214.3 601 171.7 601 128.8 601C86 601 43 601 21.5 601L0 601Z" fill="#f44336"></path></svg>